HIERARCHY
ROOT Hips
{
	OFFSET 0.000000 88.474243 0.000000
	CHANNELS 6 Xposition Yposition Zposition Zrotation Yrotation Xrotation 
	JOINT Hips_Spine
	{
		OFFSET 0.000000 0.000000 0.000000
		CHANNELS 3 Zrotation Yrotation Xrotation
		JOINT Spine
		{
			OFFSET 0.005100 8.711998 -0.691000
			CHANNELS 3 Zrotation Yrotation Xrotation
			JOINT Spine1
			{
				OFFSET -0.009200 8.660301 -1.275000
				CHANNELS 3 Zrotation Yrotation Xrotation
				JOINT Spine2
				{
					OFFSET 0.006300 9.852501 -1.857000
					CHANNELS 3 Zrotation Yrotation Xrotation
					JOINT Spine2_Neck
					{
						OFFSET 0.000000 0.000000 0.000000
						CHANNELS 3 Zrotation Yrotation Xrotation
						JOINT Neck
						{
							OFFSET 0.016300 11.420799 -0.263300
							CHANNELS 3 Zrotation Yrotation Xrotation
							End Site #name: Head
							{
								OFFSET -0.019200 9.262405 2.362500
							}
						}
					}
					JOINT Spine2_LeftShoulder
					{
						OFFSET 0.000000 0.000000 0.000000
						CHANNELS 3 Zrotation Yrotation Xrotation
						JOINT LeftShoulder
						{
							OFFSET 5.616900 6.732201 -0.345700
							CHANNELS 3 Zrotation Yrotation Xrotation
							JOINT LeftArm
							{
								OFFSET 10.664888 -0.183372 -2.440700
								CHANNELS 3 Zrotation Yrotation Xrotation
								JOINT LeftForeArm
								{
									OFFSET 27.459126 0.000000 0.000000
									CHANNELS 3 Zrotation Yrotation Xrotation
									End Site #name: LeftHand
									{
										OFFSET 21.306858 0.000000 0.000000
									}
								}
							}
						}
					}
					JOINT Spine2_RightShoulder
					{
						OFFSET 0.000000 0.000000 0.000000
						CHANNELS 3 Zrotation Yrotation Xrotation
						JOINT RightShoulder
						{
							OFFSET -5.580300 6.737503 -0.344400
							CHANNELS 3 Zrotation Yrotation Xrotation
							JOINT RightArm
							{
								OFFSET -10.679335 -0.188484 -2.383900
								CHANNELS 3 Zrotation Yrotation Xrotation
								JOINT RightForeArm
								{
									OFFSET -27.503529 0.000000 0.000000
									CHANNELS 3 Zrotation Yrotation Xrotation
									End Site #name: RightHand
									{
										OFFSET -21.306808 0.000000 0.000000
									}
								}
							}
						}
					}
				}
			}
		}
	}
	JOINT Hips_LeftUpLeg
	{
		OFFSET 0.000000 0.000000 0.000000
		CHANNELS 3 Zrotation Yrotation Xrotation
		JOINT LeftUpLeg
		{
			OFFSET 6.857700 -6.739601 0.312100
			CHANNELS 3 Zrotation Yrotation Xrotation
			JOINT LeftLeg
			{
				OFFSET -0.367590 -34.731552 -4.572400
				CHANNELS 3 Zrotation Yrotation Xrotation
				End Site #name: LeftFoot
				{
					OFFSET 0.367590 -34.656704 -6.067400
				}
			}
		}
	}
	JOINT Hips_RightUpLeg
	{
		OFFSET 0.000000 0.000000 0.000000
		CHANNELS 3 Zrotation Yrotation Xrotation
		JOINT RightUpLeg
		{
			OFFSET -6.876100 -6.733299 0.301000
			CHANNELS 3 Zrotation Yrotation Xrotation
			JOINT RightLeg
			{
				OFFSET 0.347353 -34.795158 -4.515900
				CHANNELS 3 Zrotation Yrotation Xrotation
				End Site #name: RightFoot
				{
					OFFSET -0.347353 -34.589367 -6.070300
				}
			}
		}
	}
}
MOTION
Frames: 16
Frame Time: 0.041667
0.028711 -0.017594 -0.077605 -179.258247 49.538814 -176.206761 -0.000000 -0.000000 0.000000 -3.730963 2.779472 -1.561704 1.453263 -0.722570 1.001878 0.000000 0.000000 0.000000 1.110524 -1.206426 -1.716766 -1.451891 -6.914489 -1.870872 0.877532 -0.375864 -0.748961 -4.657817 -6.184634 1.452219 -76.717973 -7.500990 11.700319 0.268365 -18.404437 3.061186 0.589369 -1.146688 -0.330500 18.831501 12.713475 3.984274 49.388132 15.311320 -12.795001 -6.958122 75.605410 -1.218065 0.000000 -0.000000 0.000000 -7.029942 17.846253 -14.659073 -5.167353 -32.039750 -0.207235 0.000000 -0.000000 -0.000000 -9.696899 -30.104219 -6.776123 -16.699042 -11.807046 15.658180 
-0.116152 -0.159885 -0.152514 178.449020 63.020857 -176.745227 -0.000000 -0.000000 0.000000 -5.545493 2.743280 1.039797 1.861400 -0.915121 0.448224 0.000000 0.000000 0.000000 1.680034 -0.972093 -1.115719 -0.405181 -13.266579 -1.348390 1.171788 -0.709711 -1.322136 -3.433472 -7.518211 1.611234 -82.149645 -16.619112 7.833629 -1.331452 -14.577798 1.651209 1.586126 -1.571886 0.444431 24.634838 15.089405 4.735222 48.708998 16.126573 -11.034071 -5.208960 64.687402 -0.313439 0.000000 -0.000000 -0.000000 -5.572814 18.653456 -13.248070 -2.996980 -29.627361 -4.323491 0.000000 -0.000000 -0.000000 -9.780371 -33.257509 -5.889982 -15.156282 -9.043814 15.156683 
-0.049897 -0.197661 -0.179022 177.189958 55.005861 -177.593613 -0.000000 -0.000000 0.000000 -5.783245 -0.007742 1.236994 2.127554 -1.107156 0.267901 0.000000 0.000000 0.000000 2.230082 -1.252196 -1.191510 -0.577308 -20.904964 -1.221931 1.295786 -0.756222 -1.735911 -2.501288 -6.147459 0.870478 -82.473406 -17.449797 1.758764 -1.087091 -8.870130 2.037961 1.951184 -1.823080 -0.143913 26.106172 16.768847 5.485510 49.835943 17.622295 -6.137148 -3.011685 64.265016 2.526250 -0.000000 -0.000000 -0.000000 -4.545005 19.917544 -12.452621 -2.577868 -29.741541 -5.059444 -0.000000 -0.000000 -0.000000 -10.112298 -37.118610 -4.306418 -15.646980 -9.868369 15.965100 
0.062654 -0.237459 -0.233793 177.968145 45.944970 -177.521858 -0.000000 -0.000000 0.000000 -5.648056 -2.006258 2.271874 1.798724 -1.432932 0.041985 0.000000 0.000000 0.000000 2.219341 -1.646366 -0.932307 -1.209133 -24.725260 -1.343308 1.196818 -1.114971 -1.874500 -2.148236 -5.160400 0.438899 -82.776291 -18.758862 0.778275 -0.875938 -6.004710 2.167242 1.783309 -2.390158 -0.082075 25.286082 16.867800 5.653842 50.313053 18.164945 -3.480091 -1.209701 66.220986 4.213191 -0.000000 0.000000 -0.000000 -3.734244 20.631933 -11.545656 -2.185594 -30.109623 -5.579564 -0.000000 -0.000000 -0.000000 -10.734186 -43.017153 -3.333353 -16.370486 -9.906437 16.650284 
0.184290 -0.255212 -0.327401 177.784762 37.795064 -177.857669 -0.000000 -0.000000 0.000000 -4.760919 -2.583037 2.924474 1.394266 -1.710715 0.041442 0.000000 0.000000 0.000000 1.966045 -1.868338 -0.283405 -1.357443 -25.998633 -1.417319 0.901531 -1.397365 -1.691901 -2.110759 -4.297997 0.217086 -82.803803 -20.130027 1.357584 0.088903 -5.239845 3.227975 1.471833 -2.664912 -0.076537 23.578743 16.193107 5.414190 50.929952 18.403626 -0.888945 -1.296432 67.763169 3.272094 -0.000000 0.000000 -0.000000 -3.421883 21.266941 -11.137926 -2.133796 -30.831782 -5.669358 -0.000000 -0.000000 -0.000000 -11.113089 -47.822894 -2.659221 -17.528202 -9.824188 17.214326 
0.319222 -0.244464 -0.442589 177.076391 31.029546 -178.215962 -0.000000 -0.000000 0.000000 -3.567612 -2.421554 3.486883 0.850754 -1.868148 0.273756 0.000000 0.000000 0.000000 1.573511 -1.964314 0.413046 -1.199991 -25.526531 -1.790470 0.565042 -1.515552 -1.380170 -2.118841 -3.148497 -0.186388 -82.771642 -20.702267 2.386096 1.518909 -5.705555 4.644713 1.065081 -2.735292 0.049564 21.973366 15.657192 5.247170 51.547851 18.480969 0.811224 -2.070490 68.904877 2.006139 -0.000000 0.000000 -0.000000 -3.508994 21.380374 -11.305569 -2.164148 -31.005144 -5.561265 -0.000000 -0.000000 -0.000000 -11.185526 -51.317683 -2.529487 -18.270519 -9.735764 17.479931 
0.459507 -0.216542 -0.573148 176.296053 26.148126 -178.390179 -0.000000 -0.000000 0.000000 -2.335012 -1.675494 3.965456 0.370255 -1.834714 0.624789 0.000000 0.000000 0.000000 1.149445 -1.964702 1.069751 -1.079571 -24.297978 -2.035737 0.259367 -1.516373 -1.003311 -2.295846 -2.363428 -0.315616 -82.548417 -21.063531 3.638635 2.714372 -6.973639 5.822845 0.598451 -2.665452 0.169288 20.444287 15.027466 5.137564 52.147380 17.306499 2.035852 -2.492528 68.539641 1.390382 -0.000000 0.000000 -0.000000 -3.763458 21.054962 -11.786013 -2.174496 -30.944181 -5.585889 -0.000000 -0.000000 -0.000000 -11.170644 -53.619300 -2.707975 -18.670124 -9.996722 17.436588 
0.599004 -0.186514 -0.709710 175.630551 22.340541 -178.434775 -0.000000 -0.000000 0.000000 -1.555798 -0.626587 4.075770 0.088402 -1.702959 1.091842 0.000000 0.000000 0.000000 0.798543 -1.878448 1.628036 -0.964152 -23.137162 -1.983409 0.021269 -1.443900 -0.636747 -2.383344 -1.939646 -0.270097 -82.166652 -21.380921 4.408573 3.523819 -8.811651 6.453910 0.220561 -2.559223 0.330301 19.246248 14.877595 4.940547 52.617516 15.825867 3.197713 -2.382441 66.398906 1.519909 -0.000000 0.000000 -0.000000 -3.977666 20.605155 -12.249585 -2.143427 -30.720290 -5.724809 -0.000000 -0.000000 -0.000000 -11.131106 -55.075275 -3.096446 -18.865011 -10.403781 17.306237 
0.736747 -0.156528 -0.843248 175.127265 18.855095 -178.439664 -0.000000 -0.000000 0.000000 -1.408992 0.213976 3.853149 -0.066378 -1.556380 1.488094 0.000000 0.000000 0.000000 0.557388 -1.760582 1.971091 -0.765782 -22.557400 -1.810329 -0.118768 -1.355364 -0.347380 -2.315174 -2.010846 -0.063300 -81.943487 -21.767878 5.498246 3.973375 -11.317601 6.498552 0.005825 -2.477065 0.462023 18.416292 15.219674 4.571381 52.867239 14.983156 3.712215 -1.767855 62.916321 2.176833 0.000000 0.000000 -0.000000 -4.076403 20.254420 -12.474357 -2.083081 -30.468822 -5.877760 -0.000000 -0.000000 -0.000000 -10.996680 -55.795573 -3.643599 -18.907760 -10.865018 17.326773 
0.871873 -0.124097 -0.976085 174.868860 15.527725 -178.442155 -0.000000 -0.000000 0.000000 -1.548945 0.863579 3.778353 -0.145953 -1.443290 1.733968 0.000000 0.000000 0.000000 0.430492 -1.670196 2.169328 -0.556944 -22.527442 -1.596601 -0.189844 -1.289146 -0.165302 -2.190198 -2.213545 0.158231 -81.623670 -22.070323 6.093509 4.385600 -14.073875 6.077000 -0.108001 -2.406077 0.546305 17.947909 15.550242 4.063645 53.050370 14.561626 3.852043 -1.162331 59.858126 2.847071 0.000000 0.000000 -0.000000 -4.072187 20.088037 -12.441459 -2.037801 -30.233690 -5.894822 -0.000000 -0.000000 -0.000000 -10.948912 -55.888840 -4.051564 -18.713449 -11.395265 17.388403 
1.004523 -0.086825 -1.110954 174.773069 12.505356 -178.460296 -0.000000 -0.000000 0.000000 -1.764479 1.334238 3.814674 -0.184400 -1.381342 1.875095 0.000000 0.000000 0.000000 0.385278 -1.610397 2.281038 -0.257327 -22.819963 -1.561285 -0.218537 -1.252053 -0.048654 -2.072638 -2.425073 0.357803 -81.150570 -22.375857 6.443398 4.771721 -16.914475 5.349470 -0.167322 -2.366240 0.611365 17.736900 15.659500 3.937977 53.225526 14.478189 3.911145 0.425742 58.296450 4.100777 0.000000 0.000000 -0.000000 -3.998754 20.062083 -12.167439 -2.009458 -30.096574 -5.865638 -0.000000 -0.000000 -0.000000 -10.909862 -55.306364 -4.375026 -18.244350 -11.943007 17.362741 
1.135900 -0.044681 -1.249676 174.750116 10.053127 -178.490826 -0.000000 -0.000000 0.000000 -1.962991 1.584906 3.951739 -0.196508 -1.373356 1.959067 0.000000 0.000000 0.000000 0.388913 -1.590711 2.323904 -0.067595 -23.222990 -1.547247 -0.217852 -1.246112 0.033020 -1.949779 -2.513914 0.470672 -80.537678 -22.683487 6.649637 5.099186 -19.776346 4.464429 -0.185672 -2.359785 0.655782 17.688801 15.754230 3.875988 53.347184 14.584325 3.921740 1.509900 58.345131 4.919600 0.000000 0.000000 -0.000000 -3.890021 20.094756 -11.706732 -1.966359 -30.139431 -5.938127 -0.000000 -0.000000 -0.000000 -10.807983 -54.258833 -4.737161 -17.694158 -12.552853 17.381215 
1.266830 -0.000962 -1.393316 174.753097 8.215028 -178.522049 -0.000000 -0.000000 0.000000 -2.120963 1.609881 4.122316 -0.189062 -1.420449 2.008588 0.000000 0.000000 0.000000 0.432662 -1.598638 2.335435 0.086167 -23.611374 -1.539616 -0.191173 -1.266942 0.093398 -1.815757 -2.472419 0.491159 -79.991265 -23.013607 6.967117 5.472762 -22.397469 3.633231 -0.169617 -2.379339 0.694596 17.697019 15.842277 3.851730 53.473606 14.861492 3.951872 2.008475 59.716043 5.213579 0.000000 0.000000 -0.000000 -3.759554 20.103798 -11.072318 -1.879453 -30.315811 -6.241713 -0.000000 -0.000000 -0.000000 -10.674405 -53.075516 -5.124900 -17.254001 -13.163736 17.406938 
1.395762 0.040161 -1.542243 174.758624 6.746729 -178.550956 -0.000000 -0.000000 0.000000 -2.239380 1.439828 4.194887 -0.160994 -1.492490 2.055387 0.000000 0.000000 0.000000 0.490780 -1.627199 2.362726 0.186677 -23.932413 -1.519806 -0.160574 -1.307481 0.139740 -1.680015 -2.403780 0.479648 -79.635293 -23.278998 7.519790 5.799691 -24.566574 3.091423 -0.137707 -2.424986 0.732843 17.706365 15.924678 3.850248 53.592479 15.199979 4.035820 1.954583 61.771644 5.076029 0.000000 0.000000 -0.000000 -3.659400 20.049811 -10.400066 -1.775749 -30.664256 -6.744688 -0.000000 -0.000000 -0.000000 -10.525207 -52.030881 -5.518784 -16.941673 -13.740855 17.456324 
1.521468 0.077005 -1.695301 174.775436 5.529947 -178.562026 -0.000000 -0.000000 0.000000 -2.291816 1.192624 4.250583 -0.120289 -1.571836 2.104283 0.000000 0.000000 0.000000 0.552516 -1.668717 2.407404 0.265665 -24.188029 -1.505899 -0.128518 -1.364577 0.179148 -1.517659 -2.236971 0.385946 -79.406093 -23.387582 8.175469 6.023103 -26.195647 2.802613 -0.098642 -2.484578 0.768595 17.722515 16.008026 3.857082 53.719097 15.529197 4.184729 1.511852 63.985396 4.649465 0.000000 0.000000 -0.000000 -3.553403 19.971372 -9.756238 -1.647802 -31.137991 -7.356462 -0.000000 -0.000000 -0.000000 -10.336601 -51.203119 -5.892878 -16.804343 -14.298491 17.527535 
1.642100 0.109576 -1.852928 174.817079 4.497704 -178.554744 -0.000000 -0.000000 0.000000 -2.286363 0.929614 4.268288 -0.067387 -1.656301 2.152159 0.000000 0.000000 0.000000 0.618634 -1.717492 2.463452 0.329235 -24.430504 -1.498808 -0.092841 -1.425904 0.211548 -1.339329 -2.048282 0.257392 -79.296564 -23.404132 8.772824 6.162113 -27.236695 2.520625 -0.051701 -2.550883 0.805883 17.758703 16.093348 3.868702 53.844319 15.869948 4.395140 0.828051 66.176447 4.013335 0.000000 0.000000 -0.000000 -3.455233 19.892800 -9.138375 -1.477675 -31.709516 -8.060306 -0.000000 0.000000 -0.000000 -10.114881 -50.678052 -6.194877 -16.758776 -14.746048 17.552987 
